<mxfile host="app.diagrams.net" modified="2023-08-15T16:29:44.588Z" agent="Mozilla/5.0 (Macintosh; Intel Mac OS X 10_15_7) AppleWebKit/537.36 (KHTML, like Gecko) Chrome/115.0.0.0 Safari/537.36 Edg/115.0.1901.203" etag="Y3vcHIYtr4rp4nutIPfh" version="21.6.5" type="device">
  <diagram id="C5RBs43oDa-KdzZeNtuy" name="Page-1">
    <mxGraphModel dx="2910" dy="1328" grid="1" gridSize="10" guides="1" tooltips="1" connect="1" arrows="1" fold="1" page="1" pageScale="1" pageWidth="827" pageHeight="1169" math="0" shadow="0">
      <root>
        <mxCell id="WIyWlLk6GJQsqaUBKTNV-0" />
        <mxCell id="WIyWlLk6GJQsqaUBKTNV-1" parent="WIyWlLk6GJQsqaUBKTNV-0" />
        <mxCell id="fdtsfqNKJsehOnMwr80u-0" value="App" style="swimlane;fontStyle=1;align=center;verticalAlign=top;childLayout=stackLayout;horizontal=1;startSize=26;horizontalStack=0;resizeParent=1;resizeParentMax=0;resizeLast=0;collapsible=1;marginBottom=0;whiteSpace=wrap;html=1;" vertex="1" parent="WIyWlLk6GJQsqaUBKTNV-1">
          <mxGeometry x="230" y="50" width="160" height="86" as="geometry" />
        </mxCell>
        <mxCell id="fdtsfqNKJsehOnMwr80u-1" value="+ PORT: static int = 8080" style="text;strokeColor=none;fillColor=none;align=left;verticalAlign=top;spacingLeft=4;spacingRight=4;overflow=hidden;rotatable=0;points=[[0,0.5],[1,0.5]];portConstraint=eastwest;whiteSpace=wrap;html=1;" vertex="1" parent="fdtsfqNKJsehOnMwr80u-0">
          <mxGeometry y="26" width="160" height="26" as="geometry" />
        </mxCell>
        <mxCell id="fdtsfqNKJsehOnMwr80u-2" value="" style="line;strokeWidth=1;fillColor=none;align=left;verticalAlign=middle;spacingTop=-1;spacingLeft=3;spacingRight=3;rotatable=0;labelPosition=right;points=[];portConstraint=eastwest;strokeColor=inherit;" vertex="1" parent="fdtsfqNKJsehOnMwr80u-0">
          <mxGeometry y="52" width="160" height="8" as="geometry" />
        </mxCell>
        <mxCell id="fdtsfqNKJsehOnMwr80u-3" value="+ main(String[]): void" style="text;strokeColor=none;fillColor=none;align=left;verticalAlign=top;spacingLeft=4;spacingRight=4;overflow=hidden;rotatable=0;points=[[0,0.5],[1,0.5]];portConstraint=eastwest;whiteSpace=wrap;html=1;" vertex="1" parent="fdtsfqNKJsehOnMwr80u-0">
          <mxGeometry y="60" width="160" height="26" as="geometry" />
        </mxCell>
        <mxCell id="fdtsfqNKJsehOnMwr80u-4" value="Utils" style="swimlane;fontStyle=1;align=center;verticalAlign=top;childLayout=stackLayout;horizontal=1;startSize=26;horizontalStack=0;resizeParent=1;resizeParentMax=0;resizeLast=0;collapsible=1;marginBottom=0;whiteSpace=wrap;html=1;" vertex="1" parent="WIyWlLk6GJQsqaUBKTNV-1">
          <mxGeometry x="220" y="1100" width="280" height="130" as="geometry" />
        </mxCell>
        <mxCell id="fdtsfqNKJsehOnMwr80u-6" value="" style="line;strokeWidth=1;fillColor=none;align=left;verticalAlign=middle;spacingTop=-1;spacingLeft=3;spacingRight=3;rotatable=0;labelPosition=right;points=[];portConstraint=eastwest;strokeColor=inherit;" vertex="1" parent="fdtsfqNKJsehOnMwr80u-4">
          <mxGeometry y="26" width="280" height="8" as="geometry" />
        </mxCell>
        <mxCell id="fdtsfqNKJsehOnMwr80u-7" value="+ splitQuery(String): Map&amp;lt;String, String&amp;gt;&lt;br&gt;+ convert(InputStream): String&lt;br&gt;+ getBody(HttpExchange): String&lt;br&gt;+ getEndpointFromPath(HttpExchange): String&lt;br&gt;+ JSONBodyToMap(String): Map&amp;lt;String, Object&amp;gt;&lt;br&gt;+ MapToJSONBody(Map&amp;lt;String, Object&amp;gt;): String" style="text;strokeColor=none;fillColor=none;align=left;verticalAlign=top;spacingLeft=4;spacingRight=4;overflow=hidden;rotatable=0;points=[[0,0.5],[1,0.5]];portConstraint=eastwest;whiteSpace=wrap;html=1;" vertex="1" parent="fdtsfqNKJsehOnMwr80u-4">
          <mxGeometry y="34" width="280" height="96" as="geometry" />
        </mxCell>
        <mxCell id="fdtsfqNKJsehOnMwr80u-9" value="&lt;p style=&quot;margin:0px;margin-top:4px;text-align:center;&quot;&gt;&lt;i&gt;&amp;lt;&amp;lt;Interface&amp;gt;&amp;gt;&lt;/i&gt;&lt;br&gt;&lt;b&gt;Request&lt;/b&gt;&lt;/p&gt;&lt;hr size=&quot;1&quot;&gt;&lt;p style=&quot;margin:0px;margin-left:4px;&quot;&gt;+ sendStringRequest(HttpExchange, String, int): void&lt;br&gt;+ handleRequest(HttpExchange): void&lt;/p&gt;" style="verticalAlign=top;align=left;overflow=fill;fontSize=12;fontFamily=Helvetica;html=1;whiteSpace=wrap;" vertex="1" parent="WIyWlLk6GJQsqaUBKTNV-1">
          <mxGeometry x="152.5" y="310" width="290" height="80" as="geometry" />
        </mxCell>
        <mxCell id="fdtsfqNKJsehOnMwr80u-12" style="edgeStyle=orthogonalEdgeStyle;rounded=0;orthogonalLoop=1;jettySize=auto;html=1;entryX=0.5;entryY=1;entryDx=0;entryDy=0;dashed=1;endArrow=block;endFill=0;" edge="1" parent="WIyWlLk6GJQsqaUBKTNV-1" source="fdtsfqNKJsehOnMwr80u-10" target="fdtsfqNKJsehOnMwr80u-9">
          <mxGeometry relative="1" as="geometry" />
        </mxCell>
        <mxCell id="fdtsfqNKJsehOnMwr80u-10" value="&lt;p style=&quot;margin:0px;margin-top:4px;text-align:center;&quot;&gt;&lt;b&gt;Abstract Request&lt;/b&gt;&lt;/p&gt;&lt;hr size=&quot;1&quot;&gt;&lt;p style=&quot;margin:0px;margin-left:4px;&quot;&gt;+ sendStringRequest(HttpExchange, String, int): void&lt;/p&gt;&amp;nbsp;+ sendFailedServerResponse(HttpExchange): void&lt;br&gt;&amp;nbsp;+ sendBadRequestResponse(HttpExchange): void&lt;br&gt;&lt;p style=&quot;margin:0px;margin-left:4px;&quot;&gt;+ sendOkResponse(HttpExchange): void&lt;br&gt;&lt;/p&gt;&lt;p style=&quot;margin:0px;margin-left:4px;&quot;&gt;+ sendNotFoundResponse(HttpExchange): void&lt;br&gt;&lt;/p&gt;" style="verticalAlign=top;align=left;overflow=fill;fontSize=12;fontFamily=Helvetica;html=1;whiteSpace=wrap;" vertex="1" parent="WIyWlLk6GJQsqaUBKTNV-1">
          <mxGeometry x="150" y="520" width="295" height="110" as="geometry" />
        </mxCell>
        <mxCell id="fdtsfqNKJsehOnMwr80u-14" value="PUTRequest" style="swimlane;fontStyle=1;align=center;verticalAlign=top;childLayout=stackLayout;horizontal=1;startSize=26;horizontalStack=0;resizeParent=1;resizeParentMax=0;resizeLast=0;collapsible=1;marginBottom=0;whiteSpace=wrap;html=1;" vertex="1" parent="WIyWlLk6GJQsqaUBKTNV-1">
          <mxGeometry x="-380" y="773" width="300" height="120" as="geometry" />
        </mxCell>
        <mxCell id="fdtsfqNKJsehOnMwr80u-15" value="- endPointHandler: Map&amp;lt;String, EndpointHandler&amp;gt;" style="text;strokeColor=none;fillColor=none;align=left;verticalAlign=top;spacingLeft=4;spacingRight=4;overflow=hidden;rotatable=0;points=[[0,0.5],[1,0.5]];portConstraint=eastwest;whiteSpace=wrap;html=1;" vertex="1" parent="fdtsfqNKJsehOnMwr80u-14">
          <mxGeometry y="26" width="300" height="26" as="geometry" />
        </mxCell>
        <mxCell id="fdtsfqNKJsehOnMwr80u-16" value="" style="line;strokeWidth=1;fillColor=none;align=left;verticalAlign=middle;spacingTop=-1;spacingLeft=3;spacingRight=3;rotatable=0;labelPosition=right;points=[];portConstraint=eastwest;strokeColor=inherit;" vertex="1" parent="fdtsfqNKJsehOnMwr80u-14">
          <mxGeometry y="52" width="300" height="8" as="geometry" />
        </mxCell>
        <mxCell id="fdtsfqNKJsehOnMwr80u-17" value="- addActor(Map&amp;lt;String, Object&amp;gt;): int&lt;br&gt;- addMovie(Map&amp;lt;String, Object&amp;gt;): int&lt;br style=&quot;border-color: var(--border-color);&quot;&gt;- addRelationship(Map&amp;lt;String, Object&amp;gt;): int" style="text;strokeColor=none;fillColor=none;align=left;verticalAlign=top;spacingLeft=4;spacingRight=4;overflow=hidden;rotatable=0;points=[[0,0.5],[1,0.5]];portConstraint=eastwest;whiteSpace=wrap;html=1;" vertex="1" parent="fdtsfqNKJsehOnMwr80u-14">
          <mxGeometry y="60" width="300" height="60" as="geometry" />
        </mxCell>
        <mxCell id="fdtsfqNKJsehOnMwr80u-18" value="GETRequest" style="swimlane;fontStyle=1;align=center;verticalAlign=top;childLayout=stackLayout;horizontal=1;startSize=26;horizontalStack=0;resizeParent=1;resizeParentMax=0;resizeLast=0;collapsible=1;marginBottom=0;whiteSpace=wrap;html=1;" vertex="1" parent="WIyWlLk6GJQsqaUBKTNV-1">
          <mxGeometry x="-60" y="730" width="340" height="180" as="geometry" />
        </mxCell>
        <mxCell id="fdtsfqNKJsehOnMwr80u-19" value="- endPointHandler: Map&amp;lt;String, EndpointHandler&amp;gt;" style="text;strokeColor=none;fillColor=none;align=left;verticalAlign=top;spacingLeft=4;spacingRight=4;overflow=hidden;rotatable=0;points=[[0,0.5],[1,0.5]];portConstraint=eastwest;whiteSpace=wrap;html=1;" vertex="1" parent="fdtsfqNKJsehOnMwr80u-18">
          <mxGeometry y="26" width="340" height="26" as="geometry" />
        </mxCell>
        <mxCell id="fdtsfqNKJsehOnMwr80u-20" value="" style="line;strokeWidth=1;fillColor=none;align=left;verticalAlign=middle;spacingTop=-1;spacingLeft=3;spacingRight=3;rotatable=0;labelPosition=right;points=[];portConstraint=eastwest;strokeColor=inherit;" vertex="1" parent="fdtsfqNKJsehOnMwr80u-18">
          <mxGeometry y="52" width="340" height="8" as="geometry" />
        </mxCell>
        <mxCell id="fdtsfqNKJsehOnMwr80u-21" value="- getActor (Map&amp;lt;String, String&amp;gt;: Map&amp;lt;String, Object&amp;gt;&lt;br&gt;- getMovie (Map&amp;lt;String, String&amp;gt;: Map&amp;lt;String, Object&amp;gt;&lt;br&gt;- hasRelationship (Map&amp;lt;String, String&amp;gt;: Map&amp;lt;String, Object&amp;gt;&lt;br&gt;- computeBaconNumber (Map&amp;lt;String, String&amp;gt;: Map&amp;lt;String, Object&amp;gt;&lt;br&gt;- computeBaconPath (Map&amp;lt;String, String&amp;gt;: Map&amp;lt;String, Object&amp;gt;" style="text;strokeColor=none;fillColor=none;align=left;verticalAlign=top;spacingLeft=4;spacingRight=4;overflow=hidden;rotatable=0;points=[[0,0.5],[1,0.5]];portConstraint=eastwest;whiteSpace=wrap;html=1;" vertex="1" parent="fdtsfqNKJsehOnMwr80u-18">
          <mxGeometry y="60" width="340" height="120" as="geometry" />
        </mxCell>
        <mxCell id="fdtsfqNKJsehOnMwr80u-22" value="DELETERequest (Added Feature)" style="swimlane;fontStyle=1;align=center;verticalAlign=top;childLayout=stackLayout;horizontal=1;startSize=26;horizontalStack=0;resizeParent=1;resizeParentMax=0;resizeLast=0;collapsible=1;marginBottom=0;whiteSpace=wrap;html=1;" vertex="1" parent="WIyWlLk6GJQsqaUBKTNV-1">
          <mxGeometry x="300" y="760" width="290" height="120" as="geometry" />
        </mxCell>
        <mxCell id="fdtsfqNKJsehOnMwr80u-23" value="- endPointHandler: Map&amp;lt;String, EndpointHandler&amp;gt;" style="text;strokeColor=none;fillColor=none;align=left;verticalAlign=top;spacingLeft=4;spacingRight=4;overflow=hidden;rotatable=0;points=[[0,0.5],[1,0.5]];portConstraint=eastwest;whiteSpace=wrap;html=1;" vertex="1" parent="fdtsfqNKJsehOnMwr80u-22">
          <mxGeometry y="26" width="290" height="26" as="geometry" />
        </mxCell>
        <mxCell id="fdtsfqNKJsehOnMwr80u-24" value="" style="line;strokeWidth=1;fillColor=none;align=left;verticalAlign=middle;spacingTop=-1;spacingLeft=3;spacingRight=3;rotatable=0;labelPosition=right;points=[];portConstraint=eastwest;strokeColor=inherit;" vertex="1" parent="fdtsfqNKJsehOnMwr80u-22">
          <mxGeometry y="52" width="290" height="8" as="geometry" />
        </mxCell>
        <mxCell id="fdtsfqNKJsehOnMwr80u-25" value="- deleteActor(Map&amp;lt;String, String): int&lt;br&gt;- deleteMovie(Map&amp;lt;String, String): int&lt;br&gt;- deleteRelationship(Map&amp;lt;String, String): int" style="text;strokeColor=none;fillColor=none;align=left;verticalAlign=top;spacingLeft=4;spacingRight=4;overflow=hidden;rotatable=0;points=[[0,0.5],[1,0.5]];portConstraint=eastwest;whiteSpace=wrap;html=1;" vertex="1" parent="fdtsfqNKJsehOnMwr80u-22">
          <mxGeometry y="60" width="290" height="60" as="geometry" />
        </mxCell>
        <mxCell id="fdtsfqNKJsehOnMwr80u-26" value="OPTIONSRequest (Added Feature)" style="swimlane;fontStyle=1;align=center;verticalAlign=top;childLayout=stackLayout;horizontal=1;startSize=26;horizontalStack=0;resizeParent=1;resizeParentMax=0;resizeLast=0;collapsible=1;marginBottom=0;whiteSpace=wrap;html=1;" vertex="1" parent="WIyWlLk6GJQsqaUBKTNV-1">
          <mxGeometry x="610" y="777" width="340" height="86" as="geometry" />
        </mxCell>
        <mxCell id="fdtsfqNKJsehOnMwr80u-27" value="- endPointHandler: Map&amp;lt;String, EndpointHandler&amp;gt;" style="text;strokeColor=none;fillColor=none;align=left;verticalAlign=top;spacingLeft=4;spacingRight=4;overflow=hidden;rotatable=0;points=[[0,0.5],[1,0.5]];portConstraint=eastwest;whiteSpace=wrap;html=1;" vertex="1" parent="fdtsfqNKJsehOnMwr80u-26">
          <mxGeometry y="26" width="340" height="26" as="geometry" />
        </mxCell>
        <mxCell id="fdtsfqNKJsehOnMwr80u-28" value="" style="line;strokeWidth=1;fillColor=none;align=left;verticalAlign=middle;spacingTop=-1;spacingLeft=3;spacingRight=3;rotatable=0;labelPosition=right;points=[];portConstraint=eastwest;strokeColor=inherit;" vertex="1" parent="fdtsfqNKJsehOnMwr80u-26">
          <mxGeometry y="52" width="340" height="8" as="geometry" />
        </mxCell>
        <mxCell id="fdtsfqNKJsehOnMwr80u-29" value="- help(): Map&amp;lt;String, Object&amp;gt;" style="text;strokeColor=none;fillColor=none;align=left;verticalAlign=top;spacingLeft=4;spacingRight=4;overflow=hidden;rotatable=0;points=[[0,0.5],[1,0.5]];portConstraint=eastwest;whiteSpace=wrap;html=1;" vertex="1" parent="fdtsfqNKJsehOnMwr80u-26">
          <mxGeometry y="60" width="340" height="26" as="geometry" />
        </mxCell>
        <mxCell id="fdtsfqNKJsehOnMwr80u-31" value="Extends" style="endArrow=block;endSize=16;endFill=0;html=1;rounded=0;exitX=0.5;exitY=0;exitDx=0;exitDy=0;entryX=0;entryY=0.5;entryDx=0;entryDy=0;" edge="1" parent="WIyWlLk6GJQsqaUBKTNV-1" source="fdtsfqNKJsehOnMwr80u-14" target="fdtsfqNKJsehOnMwr80u-10">
          <mxGeometry width="160" relative="1" as="geometry">
            <mxPoint x="-270" y="680" as="sourcePoint" />
            <mxPoint x="-230" y="590" as="targetPoint" />
          </mxGeometry>
        </mxCell>
        <mxCell id="fdtsfqNKJsehOnMwr80u-32" value="Extends" style="endArrow=block;endSize=16;endFill=0;html=1;rounded=0;exitX=0.5;exitY=0;exitDx=0;exitDy=0;entryX=0.25;entryY=1;entryDx=0;entryDy=0;" edge="1" parent="WIyWlLk6GJQsqaUBKTNV-1" source="fdtsfqNKJsehOnMwr80u-18" target="fdtsfqNKJsehOnMwr80u-10">
          <mxGeometry width="160" relative="1" as="geometry">
            <mxPoint x="10" y="748" as="sourcePoint" />
            <mxPoint x="390" y="550" as="targetPoint" />
          </mxGeometry>
        </mxCell>
        <mxCell id="fdtsfqNKJsehOnMwr80u-33" value="Extends" style="endArrow=block;endSize=16;endFill=0;html=1;rounded=0;exitX=0.5;exitY=0;exitDx=0;exitDy=0;entryX=0.75;entryY=1;entryDx=0;entryDy=0;" edge="1" parent="WIyWlLk6GJQsqaUBKTNV-1" source="fdtsfqNKJsehOnMwr80u-22" target="fdtsfqNKJsehOnMwr80u-10">
          <mxGeometry width="160" relative="1" as="geometry">
            <mxPoint x="356" y="710" as="sourcePoint" />
            <mxPoint x="470" y="610" as="targetPoint" />
          </mxGeometry>
        </mxCell>
        <mxCell id="fdtsfqNKJsehOnMwr80u-34" value="Extends" style="endArrow=block;endSize=16;endFill=0;html=1;rounded=0;exitX=0.5;exitY=0;exitDx=0;exitDy=0;entryX=1;entryY=0.5;entryDx=0;entryDy=0;" edge="1" parent="WIyWlLk6GJQsqaUBKTNV-1" source="fdtsfqNKJsehOnMwr80u-26" target="fdtsfqNKJsehOnMwr80u-10">
          <mxGeometry width="160" relative="1" as="geometry">
            <mxPoint x="610" y="720" as="sourcePoint" />
            <mxPoint x="724" y="620" as="targetPoint" />
          </mxGeometry>
        </mxCell>
        <mxCell id="fdtsfqNKJsehOnMwr80u-36" value="Use" style="endArrow=open;endSize=12;dashed=1;html=1;rounded=0;exitX=0;exitY=0.5;exitDx=0;exitDy=0;entryX=0.46;entryY=1.065;entryDx=0;entryDy=0;entryPerimeter=0;" edge="1" parent="WIyWlLk6GJQsqaUBKTNV-1" source="fdtsfqNKJsehOnMwr80u-7" target="fdtsfqNKJsehOnMwr80u-17">
          <mxGeometry width="160" relative="1" as="geometry">
            <mxPoint x="-10" y="980" as="sourcePoint" />
            <mxPoint x="150" y="980" as="targetPoint" />
            <Array as="points">
              <mxPoint x="-240" y="1182" />
            </Array>
          </mxGeometry>
        </mxCell>
        <mxCell id="fdtsfqNKJsehOnMwr80u-37" value="Use" style="endArrow=open;endSize=12;dashed=1;html=1;rounded=0;exitX=0.25;exitY=0;exitDx=0;exitDy=0;entryX=0.475;entryY=1.02;entryDx=0;entryDy=0;entryPerimeter=0;" edge="1" parent="WIyWlLk6GJQsqaUBKTNV-1" source="fdtsfqNKJsehOnMwr80u-4" target="fdtsfqNKJsehOnMwr80u-21">
          <mxGeometry width="160" relative="1" as="geometry">
            <mxPoint x="340" y="930" as="sourcePoint" />
            <mxPoint x="500" y="930" as="targetPoint" />
            <Array as="points">
              <mxPoint x="100" y="1100" />
            </Array>
          </mxGeometry>
        </mxCell>
        <mxCell id="fdtsfqNKJsehOnMwr80u-38" value="Use" style="endArrow=open;endSize=12;dashed=1;html=1;rounded=0;exitX=0.75;exitY=0;exitDx=0;exitDy=0;" edge="1" parent="WIyWlLk6GJQsqaUBKTNV-1" source="fdtsfqNKJsehOnMwr80u-4">
          <mxGeometry width="160" relative="1" as="geometry">
            <mxPoint x="458" y="1011" as="sourcePoint" />
            <mxPoint x="430" y="890" as="targetPoint" />
            <Array as="points">
              <mxPoint x="430" y="960" />
            </Array>
          </mxGeometry>
        </mxCell>
        <mxCell id="fdtsfqNKJsehOnMwr80u-39" value="Use" style="endArrow=open;endSize=12;dashed=1;html=1;rounded=0;exitX=1;exitY=0.5;exitDx=0;exitDy=0;entryX=0.583;entryY=1.107;entryDx=0;entryDy=0;entryPerimeter=0;" edge="1" parent="WIyWlLk6GJQsqaUBKTNV-1" source="fdtsfqNKJsehOnMwr80u-7" target="fdtsfqNKJsehOnMwr80u-29">
          <mxGeometry width="160" relative="1" as="geometry">
            <mxPoint x="668" y="1088" as="sourcePoint" />
            <mxPoint x="510" y="970" as="targetPoint" />
            <Array as="points">
              <mxPoint x="810" y="1182" />
            </Array>
          </mxGeometry>
        </mxCell>
        <mxCell id="fdtsfqNKJsehOnMwr80u-40" value="Neo4JDriverSession" style="swimlane;fontStyle=1;align=center;verticalAlign=top;childLayout=stackLayout;horizontal=1;startSize=26;horizontalStack=0;resizeParent=1;resizeParentMax=0;resizeLast=0;collapsible=1;marginBottom=0;whiteSpace=wrap;html=1;" vertex="1" parent="WIyWlLk6GJQsqaUBKTNV-1">
          <mxGeometry x="255" y="1340" width="210" height="150" as="geometry" />
        </mxCell>
        <mxCell id="fdtsfqNKJsehOnMwr80u-41" value="- uri: String&lt;br&gt;- userName: String&lt;br&gt;- passWord: String&lt;br&gt;- driver: Driver" style="text;strokeColor=none;fillColor=none;align=left;verticalAlign=top;spacingLeft=4;spacingRight=4;overflow=hidden;rotatable=0;points=[[0,0.5],[1,0.5]];portConstraint=eastwest;whiteSpace=wrap;html=1;" vertex="1" parent="fdtsfqNKJsehOnMwr80u-40">
          <mxGeometry y="26" width="210" height="74" as="geometry" />
        </mxCell>
        <mxCell id="fdtsfqNKJsehOnMwr80u-42" value="" style="line;strokeWidth=1;fillColor=none;align=left;verticalAlign=middle;spacingTop=-1;spacingLeft=3;spacingRight=3;rotatable=0;labelPosition=right;points=[];portConstraint=eastwest;strokeColor=inherit;" vertex="1" parent="fdtsfqNKJsehOnMwr80u-40">
          <mxGeometry y="100" width="210" height="8" as="geometry" />
        </mxCell>
        <mxCell id="fdtsfqNKJsehOnMwr80u-43" value="+ getDriverInstance(): Driver&lt;br&gt;+ close():void" style="text;strokeColor=none;fillColor=none;align=left;verticalAlign=top;spacingLeft=4;spacingRight=4;overflow=hidden;rotatable=0;points=[[0,0.5],[1,0.5]];portConstraint=eastwest;whiteSpace=wrap;html=1;" vertex="1" parent="fdtsfqNKJsehOnMwr80u-40">
          <mxGeometry y="108" width="210" height="42" as="geometry" />
        </mxCell>
        <mxCell id="fdtsfqNKJsehOnMwr80u-45" value="" style="endArrow=diamondThin;endFill=0;endSize=24;html=1;rounded=0;exitX=1;exitY=0.5;exitDx=0;exitDy=0;entryX=0.451;entryY=1.346;entryDx=0;entryDy=0;entryPerimeter=0;" edge="1" parent="WIyWlLk6GJQsqaUBKTNV-1" source="fdtsfqNKJsehOnMwr80u-41" target="fdtsfqNKJsehOnMwr80u-29">
          <mxGeometry width="160" relative="1" as="geometry">
            <mxPoint x="500" y="1400" as="sourcePoint" />
            <mxPoint x="650" y="1400" as="targetPoint" />
            <Array as="points">
              <mxPoint x="760" y="1400" />
            </Array>
          </mxGeometry>
        </mxCell>
        <mxCell id="fdtsfqNKJsehOnMwr80u-46" value="" style="endArrow=diamondThin;endFill=0;endSize=24;html=1;rounded=0;exitX=0.996;exitY=-0.004;exitDx=0;exitDy=0;entryX=0.933;entryY=1.077;entryDx=0;entryDy=0;entryPerimeter=0;exitPerimeter=0;" edge="1" parent="WIyWlLk6GJQsqaUBKTNV-1" source="fdtsfqNKJsehOnMwr80u-41" target="fdtsfqNKJsehOnMwr80u-25">
          <mxGeometry width="160" relative="1" as="geometry">
            <mxPoint x="475" y="1413" as="sourcePoint" />
            <mxPoint x="773" y="882" as="targetPoint" />
            <Array as="points">
              <mxPoint x="580" y="1366" />
            </Array>
          </mxGeometry>
        </mxCell>
        <mxCell id="fdtsfqNKJsehOnMwr80u-47" value="" style="endArrow=diamondThin;endFill=0;endSize=24;html=1;rounded=0;exitX=0;exitY=0.5;exitDx=0;exitDy=0;entryX=0.716;entryY=1.036;entryDx=0;entryDy=0;entryPerimeter=0;" edge="1" parent="WIyWlLk6GJQsqaUBKTNV-1" source="fdtsfqNKJsehOnMwr80u-41" target="fdtsfqNKJsehOnMwr80u-17">
          <mxGeometry width="160" relative="1" as="geometry">
            <mxPoint x="-40" y="1501" as="sourcePoint" />
            <mxPoint x="258" y="970" as="targetPoint" />
            <Array as="points">
              <mxPoint x="-165" y="1403" />
            </Array>
          </mxGeometry>
        </mxCell>
        <mxCell id="fdtsfqNKJsehOnMwr80u-48" value="" style="endArrow=diamondThin;endFill=0;endSize=24;html=1;rounded=0;exitX=-0.011;exitY=0.124;exitDx=0;exitDy=0;entryX=0.344;entryY=1.017;entryDx=0;entryDy=0;entryPerimeter=0;exitPerimeter=0;" edge="1" parent="WIyWlLk6GJQsqaUBKTNV-1" source="fdtsfqNKJsehOnMwr80u-41" target="fdtsfqNKJsehOnMwr80u-21">
          <mxGeometry width="160" relative="1" as="geometry">
            <mxPoint x="495" y="1433" as="sourcePoint" />
            <mxPoint x="793" y="902" as="targetPoint" />
            <Array as="points">
              <mxPoint x="50" y="1375" />
            </Array>
          </mxGeometry>
        </mxCell>
        <mxCell id="fdtsfqNKJsehOnMwr80u-51" value="&lt;p style=&quot;margin:0px;margin-top:4px;text-align:center;&quot;&gt;&lt;i&gt;&amp;lt;&amp;lt;Interface&amp;gt;&amp;gt;&lt;/i&gt;&lt;br&gt;&lt;b&gt;HttpHandler&lt;/b&gt;&lt;/p&gt;&lt;hr size=&quot;1&quot;&gt;&lt;p style=&quot;margin:0px;margin-left:4px;&quot;&gt;handle(HttpExchange): void&lt;br&gt;&lt;/p&gt;" style="verticalAlign=top;align=left;overflow=fill;fontSize=12;fontFamily=Helvetica;html=1;whiteSpace=wrap;" vertex="1" parent="WIyWlLk6GJQsqaUBKTNV-1">
          <mxGeometry x="761" y="110" width="190" height="70" as="geometry" />
        </mxCell>
        <mxCell id="fdtsfqNKJsehOnMwr80u-52" value="Handler" style="swimlane;fontStyle=1;align=center;verticalAlign=top;childLayout=stackLayout;horizontal=1;startSize=26;horizontalStack=0;resizeParent=1;resizeParentMax=0;resizeLast=0;collapsible=1;marginBottom=0;whiteSpace=wrap;html=1;" vertex="1" parent="WIyWlLk6GJQsqaUBKTNV-1">
          <mxGeometry x="766" y="240" width="180" height="60" as="geometry" />
        </mxCell>
        <mxCell id="fdtsfqNKJsehOnMwr80u-54" value="" style="line;strokeWidth=1;fillColor=none;align=left;verticalAlign=middle;spacingTop=-1;spacingLeft=3;spacingRight=3;rotatable=0;labelPosition=right;points=[];portConstraint=eastwest;strokeColor=inherit;" vertex="1" parent="fdtsfqNKJsehOnMwr80u-52">
          <mxGeometry y="26" width="180" height="8" as="geometry" />
        </mxCell>
        <mxCell id="fdtsfqNKJsehOnMwr80u-55" value="+ handle(HttpExchange): void" style="text;strokeColor=none;fillColor=none;align=left;verticalAlign=top;spacingLeft=4;spacingRight=4;overflow=hidden;rotatable=0;points=[[0,0.5],[1,0.5]];portConstraint=eastwest;whiteSpace=wrap;html=1;" vertex="1" parent="fdtsfqNKJsehOnMwr80u-52">
          <mxGeometry y="34" width="180" height="26" as="geometry" />
        </mxCell>
        <mxCell id="fdtsfqNKJsehOnMwr80u-56" value="" style="endArrow=block;dashed=1;endFill=0;endSize=12;html=1;rounded=0;entryX=0.5;entryY=1;entryDx=0;entryDy=0;exitX=0.5;exitY=0;exitDx=0;exitDy=0;" edge="1" parent="WIyWlLk6GJQsqaUBKTNV-1" source="fdtsfqNKJsehOnMwr80u-52" target="fdtsfqNKJsehOnMwr80u-51">
          <mxGeometry width="160" relative="1" as="geometry">
            <mxPoint x="1140" y="400" as="sourcePoint" />
            <mxPoint x="1300" y="400" as="targetPoint" />
          </mxGeometry>
        </mxCell>
        <mxCell id="fdtsfqNKJsehOnMwr80u-57" value="" style="endArrow=diamondThin;endFill=1;endSize=24;html=1;rounded=0;entryX=0;entryY=0.5;entryDx=0;entryDy=0;exitX=0.463;exitY=1.127;exitDx=0;exitDy=0;exitPerimeter=0;" edge="1" parent="WIyWlLk6GJQsqaUBKTNV-1" source="fdtsfqNKJsehOnMwr80u-3" target="fdtsfqNKJsehOnMwr80u-52">
          <mxGeometry width="160" relative="1" as="geometry">
            <mxPoint x="560" y="320" as="sourcePoint" />
            <mxPoint x="720" y="320" as="targetPoint" />
            <Array as="points">
              <mxPoint x="304" y="270" />
            </Array>
          </mxGeometry>
        </mxCell>
        <mxCell id="fdtsfqNKJsehOnMwr80u-58" value="" style="endArrow=diamondThin;endFill=1;endSize=24;html=1;rounded=0;exitX=1;exitY=0.5;exitDx=0;exitDy=0;entryX=0.5;entryY=1;entryDx=0;entryDy=0;" edge="1" parent="WIyWlLk6GJQsqaUBKTNV-1" source="fdtsfqNKJsehOnMwr80u-9" target="fdtsfqNKJsehOnMwr80u-52">
          <mxGeometry width="160" relative="1" as="geometry">
            <mxPoint x="560" y="320" as="sourcePoint" />
            <mxPoint x="840" y="350" as="targetPoint" />
            <Array as="points">
              <mxPoint x="856" y="350" />
            </Array>
          </mxGeometry>
        </mxCell>
      </root>
    </mxGraphModel>
  </diagram>
</mxfile>
